<?xml version="1.0" encoding="UTF-8" standalone="no"?>
<!-- Created with Inkscape (http://www.inkscape.org/) -->

<svg
   xmlns:dc="http://purl.org/dc/elements/1.1/"
   xmlns:cc="http://creativecommons.org/ns#"
   xmlns:rdf="http://www.w3.org/1999/02/22-rdf-syntax-ns#"
   xmlns:svg="http://www.w3.org/2000/svg"
   xmlns="http://www.w3.org/2000/svg"
   xmlns:sodipodi="http://sodipodi.sourceforge.net/DTD/sodipodi-0.dtd"
   xmlns:inkscape="http://www.inkscape.org/namespaces/inkscape"
   width="744.09448819"
   height="1052.3622047"
   id="svg2"
   version="1.1"
   inkscape:version="0.48.1 r9760"
   sodipodi:docname="pump.svg">
  <defs
     id="defs4" />
  <sodipodi:namedview
     id="base"
     pagecolor="#ffffff"
     bordercolor="#666666"
     borderopacity="1.0"
     inkscape:pageopacity="0.0"
     inkscape:pageshadow="2"
     inkscape:zoom="0.24748737"
     inkscape:cx="388.0264"
     inkscape:cy="534.58838"
     inkscape:document-units="px"
     inkscape:current-layer="layer1"
     showgrid="false"
     inkscape:window-width="483"
     inkscape:window-height="454"
     inkscape:window-x="66"
     inkscape:window-y="27"
     inkscape:window-maximized="0" />
  <metadata
     id="metadata7">
    <rdf:RDF>
      <cc:Work
         rdf:about="">
        <dc:format>image/svg+xml</dc:format>
        <dc:type
           rdf:resource="http://purl.org/dc/dcmitype/StillImage" />
        <dc:title></dc:title>
      </cc:Work>
    </rdf:RDF>
  </metadata>
  <g
     inkscape:label="Layer 1"
     inkscape:groupmode="layer"
     id="layer1">
    <path
       style="fill:#000000"
       d="m 60.241378,973.05943 c -4.209658,-4.2096 -7.653933,-187.04423 -7.653933,-406.29905 0,-493.992359 -17.007518,-452.85296 187.214725,-452.85296 196.25414,0 191.6541,-4.72727 191.6541,196.95425 l 0,153.2124 44.65166,0 c 26.83988,0 55.46337,8.74865 71.75545,21.93192 26.31485,21.29345 27.18326,27.53893 29.83475,214.55304 2.791,196.85844 10.47458,231.68612 43.76878,198.39193 15.85752,-15.85752 15.23581,-30.84076 -6.17177,-148.7593 -17.89879,-98.59191 -21.92643,-153.20204 -16.23306,-220.10257 7.1054,-83.49143 6.17503,-88.97676 -15.09262,-88.97676 -39.32213,0 -60.66621,-36.45075 -60.66621,-103.60365 0,-51.41688 -5.17133,-67.01029 -31.25026,-94.23088 -24.96434,-26.05709 -28.75819,-36.57552 -18.86099,-52.29214 22.88964,-36.34814 45.17573,-26.62452 122.46341,53.43151 l 76.89921,79.65384 0.0801,153.23788 c 0.0481,100.61539 7.90929,198.57742 22.88595,285.26787 12.54528,72.61654 22.84371,135.5084 22.88564,139.75977 0.0481,4.25148 -13.29913,23.62549 -29.64659,43.05328 -25.00248,29.71378 -37.84857,35.32356 -80.88807,35.32356 -39.01566,0 -57.85683,-6.69163 -79.34555,-28.18029 -27.64885,-27.6489 -28.18029,-31.76252 -28.18029,-218.13655 l 0,-189.95638 -34.44259,0 -34.44265,0 0,218.13661 0,218.13661 -181.78045,0 c -99.97937,0 -185.224832,-3.44428 -189.434436,-7.65394 z M 411.11685,736.7448 l 3.1181,-221.00682 51.66396,0 51.66392,0 5.74042,199.08996 c 5.53767,192.0564 6.69798,199.86421 32.84426,221.00682 35.05212,28.34399 71.30103,27.81768 102.7614,-1.4922 29.73637,-27.70365 30.72304,-48.65211 7.90721,-167.88558 -9.5895,-50.11392 -17.22015,-153.60962 -17.22132,-233.57346 -10e-4,-78.97269 -5.11033,-161.39869 -11.35389,-183.16883 -10.97328,-38.26138 -108.38608,-149.70072 -130.85842,-149.70072 -6.07392,0 0.18961,11.95733 13.91955,26.57192 18.88796,20.10542 25.24149,41.7588 26.1074,88.97677 0.8174,44.57411 3.42152,54.22108 9.11398,33.76293 15.37757,-55.26522 69.53012,-39.47478 69.93193,20.39155 0.21792,32.43587 -27.88668,44.75218 -54.50464,23.88592 -18.04471,-14.1457 -18.4438,-13.72113 -4.18845,4.45599 8.66634,11.05035 25.45711,20.09153 37.31285,20.09153 19.70724,0 21.55602,10.25255 21.55602,119.5392 0,65.74658 7.74868,160.03328 17.21935,209.52592 29.01195,151.61401 21.30882,187.57418 -40.1811,187.57418 -53.79021,0 -57.40439,-13.83757 -57.40439,-219.78184 0,-185.62766 -0.87599,-192.84122 -25.51635,-210.09998 -14.034,-9.82969 -45.03232,-17.87224 -68.88523,-17.87224 l -43.36889,0 0,-146.69677 c 0,-201.24179 2.95711,-197.72947 -166.47264,-197.72947 -122.07569,0 -131.91089,1.68887 -148.600392,25.51641 -15.291415,21.8314 -17.872298,79.73818 -17.872298,400.98864 0,347.93877 1.473348,375.85751 20.091534,380.72289 11.050356,2.88779 85.851466,5.84987 166.224806,6.58229 l 146.13312,1.33181 z M 114.89632,391.40999 c -3.22059,-8.39282 -4.35008,-61.34838 -2.50995,-117.67894 l 3.34589,-102.41925 120.38763,-3.30182 c 144.28082,-3.95697 149.48878,-0.0571 149.25607,111.69421 -0.2756,132.21752 5.48763,126.96549 -139.31304,126.96549 -93.63722,0 -126.791,-3.85709 -131.1666,-15.25969 z m 236.19381,-99.54904 0,-91.84698 -109.06825,0 -109.0683,0 0,91.84698 0,91.84698 109.0683,0 109.06825,0 z"
       id="path3066"
       inkscape:connector-curvature="0"
       sodipodi:nodetypes="cssscsssssssssssccscsssscccccsccccccssssssscsscssssssssscssssssccsscssssccccccccc" />
  </g>
</svg>
