<?xml version="1.0" encoding="UTF-8" standalone="no"?>
<!-- Created with Inkscape (http://www.inkscape.org/) -->

<svg
   xmlns:dc="http://purl.org/dc/elements/1.1/"
   xmlns:cc="http://creativecommons.org/ns#"
   xmlns:rdf="http://www.w3.org/1999/02/22-rdf-syntax-ns#"
   xmlns:svg="http://www.w3.org/2000/svg"
   xmlns="http://www.w3.org/2000/svg"
   xmlns:xlink="http://www.w3.org/1999/xlink"
   xmlns:sodipodi="http://sodipodi.sourceforge.net/DTD/sodipodi-0.dtd"
   xmlns:inkscape="http://www.inkscape.org/namespaces/inkscape"
   width="744.09448819"
   height="1052.3622047"
   id="svg2"
   version="1.1"
   inkscape:version="0.48.1 "
   sodipodi:docname="pump.svg">
  <defs
     id="defs4">
    <linearGradient
       id="linearGradient3784">
      <stop
         style="stop-color:#ffffff;stop-opacity:1;"
         offset="0"
         id="stop3786" />
      <stop
         style="stop-color:#107ee5;stop-opacity:1;"
         offset="1"
         id="stop3788" />
    </linearGradient>
    <linearGradient
       id="linearGradient3760">
      <stop
         style="stop-color:#2389ce;stop-opacity:1;"
         offset="0"
         id="stop3762" />
      <stop
         style="stop-color:#0e53cc;stop-opacity:1;"
         offset="1"
         id="stop3764" />
    </linearGradient>
    <radialGradient
       inkscape:collect="always"
       xlink:href="#linearGradient3760"
       id="radialGradient3766"
       cx="381.6713"
       cy="548.02087"
       fx="381.6713"
       fy="548.02087"
       r="315.89005"
       gradientTransform="matrix(1,0,0,1.3329073,0,-182.44015)"
       gradientUnits="userSpaceOnUse"
       spreadMethod="reflect" />
  </defs>
  <sodipodi:namedview
     id="base"
     pagecolor="#ffffff"
     bordercolor="#666666"
     borderopacity="1.0"
     inkscape:pageopacity="0.0"
     inkscape:pageshadow="2"
     inkscape:zoom="0.04"
     inkscape:cx="897.03115"
     inkscape:cy="171.31898"
     inkscape:document-units="px"
     inkscape:current-layer="layer1"
     showgrid="false"
     inkscape:window-width="678"
     inkscape:window-height="455"
     inkscape:window-x="961"
     inkscape:window-y="428"
     inkscape:window-maximized="0" />
  <metadata
     id="metadata7">
    <rdf:RDF>
      <cc:Work
         rdf:about="">
        <dc:format>image/svg+xml</dc:format>
        <dc:type
           rdf:resource="http://purl.org/dc/dcmitype/StillImage" />
        <dc:title />
      </cc:Work>
    </rdf:RDF>
  </metadata>
  <g
     inkscape:groupmode="layer"
     id="layer3"
     inkscape:label="Background"
     style="display:inline">
    <rect
       style="fill:#000000;fill-opacity:1;stroke-width:10;stroke-linejoin:round;stroke-miterlimit:4;stroke-dasharray:none"
       id="rect3756"
       width="751.85724"
       height="1060.3115"
       x="0"
       y="-7.9492965" />
  </g>
  <g
     inkscape:groupmode="layer"
     id="layer2"
     inkscape:label="guide"
     style="display:none">
    <path
       style="fill:#cccccc"
       d="m 63.468304,972.62283 c -4.20966,-4.2096 -7.65394,-187.0442 -7.65394,-406.29901 0,-493.992368 -17.00751,-452.85296 187.214726,-452.85296 196.25414,0 191.6541,-4.72727 191.6541,196.95425 l 0,153.2124 44.65166,0 c 137.69384,11.60369 101.00027,195.84392 101.5902,236.48492 2.791,196.8585 10.47458,231.6862 43.76878,198.392 15.85752,-15.8575 15.23581,-30.8408 -6.17177,-148.7593 -17.89879,-98.5919 -21.92643,-153.2021 -16.23306,-220.1026 7.1054,-83.49143 6.17503,-88.97676 -15.09262,-88.97676 -39.32213,0 -60.66621,-36.45075 -60.66621,-103.60365 0,-51.41688 -5.17133,-67.01029 -31.25026,-94.23088 -24.96434,-26.05709 -28.75819,-36.57552 -18.86099,-52.29214 22.88964,-36.34814 45.17573,-26.62452 122.46341,53.43151 l 76.89921,79.65384 0.0801,153.23788 c 0.0481,100.61539 7.90929,198.5774 22.88595,285.2679 12.54528,72.6165 22.84371,135.5084 22.88564,139.7597 0.0481,4.2515 -13.29913,23.6255 -29.64659,43.0533 -25.00248,29.7138 -37.84857,42.3947 -80.88807,42.3947 -39.01566,0 -57.85683,-13.7627 -79.34555,-35.2514 -27.64885,-27.6489 -28.18029,-31.7625 -28.18029,-218.1366 l 0,-189.95634 -34.44259,0 -34.44265,0 0,218.13664 0,218.1366 -181.78045,0 c -99.97937,0 -185.224826,-3.4443 -189.434436,-7.654 z m 350.875466,-236.3146 3.1181,-221.00681 51.66396,0 51.66392,0 5.74042,199.09001 c 5.53767,192.0564 6.69798,199.8642 32.84426,221.0068 35.05212,28.344 71.30103,27.8177 102.7614,-1.4922 29.73637,-27.7037 30.72304,-48.6521 7.90721,-167.8856 -9.5895,-50.1139 -17.22015,-153.6096 -17.22132,-233.57347 -10e-4,-78.97269 -5.11033,-161.39869 -11.35389,-183.16883 -10.97328,-38.26138 -108.38608,-149.70072 -130.85842,-149.70072 -6.07392,0 0.18961,11.95733 13.91955,26.57192 18.88796,20.10542 25.24149,41.7588 26.1074,88.97677 0.8174,44.57411 3.42152,54.22108 9.11398,33.76293 15.37757,-55.26522 69.53012,-39.47478 69.93193,20.39155 0.21792,32.43587 -27.88668,44.75218 -54.50464,23.88592 -18.04471,-14.1457 -18.4438,-13.72113 -4.18845,4.45599 8.66634,11.05035 25.45711,20.09153 37.31285,20.09153 19.70724,0 21.55602,10.25255 21.55602,119.5392 0,65.74661 7.74868,160.03331 17.21935,209.52591 29.01195,151.614 21.30882,187.5742 -40.1811,187.5742 -53.79021,0 -57.40439,-13.8376 -57.40439,-219.7818 0,-185.62771 -0.87599,-192.84127 -25.51635,-210.10003 -14.034,-9.82969 -45.03232,-17.87224 -68.88523,-17.87224 l -43.36889,0 0,-146.69677 c 0,-201.24179 2.95711,-197.72947 -166.47264,-197.72947 -122.07569,0 -131.91089,1.68887 -148.600389,25.51641 -15.29142,21.8314 -17.8723,79.73818 -17.8723,400.98864 0,347.93876 1.47335,375.85756 20.091529,380.72286 11.05036,2.8878 85.85147,5.8499 166.22481,6.5823 l 146.13312,1.3318 z M 118.12324,390.97343 c -3.22059,-8.39282 -4.35008,-61.34838 -2.50995,-117.67894 l 3.34589,-102.41925 120.38763,-3.30182 c 144.28082,-3.95697 149.48878,-0.0571 149.25607,111.69421 -0.2756,132.21752 5.48763,126.96549 -139.31304,126.96549 -93.63722,0 -126.791,-3.85709 -131.1666,-15.25969 z m 236.19381,-99.54904 0,-91.84698 -109.06825,0 -109.0683,0 0,91.84698 0,91.84698 109.0683,0 109.06825,0 z"
       id="path3066"
       inkscape:connector-curvature="0"
       sodipodi:nodetypes="cssscccssssssssccscsssscccccsccccccssssssscsscssssssssscssssssccsscssssccccccccc" />
  </g>
  <g
     inkscape:label="Pump"
     inkscape:groupmode="layer"
     id="layer1"
     style="display:inline">
    <path
       style="fill:url(#radialGradient3766);stroke:none;stroke-width:5;stroke-linecap:butt;stroke-linejoin:round;stroke-miterlimit:4;stroke-opacity:0.94117647000000004;stroke-dasharray:none;fill-opacity:1.0"
       d="M 111.4375 127.46875 C 87.669024 127.46875 66.28125 143.4522 66.28125 174.15625 L 66.28125 967.875 L 422.875 967.875 L 422.875 529.53125 L 508.59375 529.53125 C 508.59375 529.53125 516.1402 878.625 515.65625 878.625 C 515.17229 878.625 512.13783 966.51094 601.03125 968.53125 C 639.3274 969.40162 658.15183 956.52039 671.15625 944.625 C 688.33783 928.90867 696.14413 918.19432 697 891.75 C 698.39131 848.76188 675.77808 793.75784 663.65625 584.65625 C 651.61264 376.90382 654.59375 329.09375 654.59375 329.09375 C 619.56849 293.88497 541.09313 183.08041 504.0625 185.65625 C 483.85945 189.69686 479.82503 205.86723 487.90625 215.96875 C 495.98747 226.07028 529.00171 233.03999 531.34375 287.6875 C 534.3742 358.39818 543.45161 397.77506 557.59375 413.9375 C 571.73588 430.09994 591.94067 430.10469 604.0625 432.125 C 616.18433 434.1453 618.22812 452.32676 614.1875 506.875 C 610.14689 561.42324 617.20161 681.64402 631.34375 754.375 C 645.48588 827.10598 664.67974 905.91353 609.125 923.0625 C 560.31729 938.12875 561.63595 829.1306 563.65625 651.34375 C 568.03196 574.12892 562.50383 530.1121 539.15625 506.125 C 517.13411 483.49963 489.59747 473.62993 422.25 475.5625 L 422.25 170.9375 C 420.99438 142.34501 408.06209 127.352 378.21875 127.96875 L 227.46875 127.46875 L 111.4375 127.46875 z M 127.84375 185.9375 L 367.84375 185.9375 L 367.84375 393.0625 L 127.84375 393.0625 L 127.84375 185.9375 z M 578.5 323.40625 C 578.99999 323.40857 579.48685 323.44139 580 323.46875 C 605.26829 324.81582 614.84545 335.62987 618.59375 360.59375 C 621.99156 383.22335 612.14733 396.29911 585.71875 399.15625 C 554.95205 402.48238 541.4375 372.03125 541.4375 372.03125 C 541.4375 372.03125 547.00046 323.26005 578.5 323.40625 z "
       id="path2997" />
  </g>
</svg>
