<?xml version="1.0" encoding="UTF-8" standalone="no"?>
<!-- Created with Inkscape (http://www.inkscape.org/) -->

<svg
   xmlns:dc="http://purl.org/dc/elements/1.1/"
   xmlns:cc="http://creativecommons.org/ns#"
   xmlns:rdf="http://www.w3.org/1999/02/22-rdf-syntax-ns#"
   xmlns:svg="http://www.w3.org/2000/svg"
   xmlns="http://www.w3.org/2000/svg"
   xmlns:xlink="http://www.w3.org/1999/xlink"
   xmlns:sodipodi="http://sodipodi.sourceforge.net/DTD/sodipodi-0.dtd"
   xmlns:inkscape="http://www.inkscape.org/namespaces/inkscape"
   width="320"
   height="460"
   id="svg2"
   version="1.1"
   inkscape:version="0.48.0 r9654"
   sodipodi:docname="splash.svg"
   style="display:inline"
   inkscape:export-filename="C:\Users\Court\Documents\My Dropbox\Randomland\MobileMiles\splash.png"
   inkscape:export-xdpi="90"
   inkscape:export-ydpi="90">
  <defs
     id="defs4">
    <linearGradient
       id="linearGradient5364">
      <stop
         style="stop-color:#550000;stop-opacity:0.39215687;"
         offset="0"
         id="stop5366" />
      <stop
         style="stop-color:#550000;stop-opacity:1;"
         offset="1"
         id="stop5368" />
    </linearGradient>
    <linearGradient
       id="linearGradient5354">
      <stop
         style="stop-color:#e6e6e6;stop-opacity:1;"
         offset="0"
         id="stop5356" />
      <stop
         style="stop-color:#e6e6e6;stop-opacity:0.70535713;"
         offset="1"
         id="stop5358" />
    </linearGradient>
    <linearGradient
       id="linearGradient3875">
      <stop
         style="stop-color:#ffffff;stop-opacity:1;"
         offset="0"
         id="stop3877" />
      <stop
         style="stop-color:#ffffff;stop-opacity:0.58928573;"
         offset="1"
         id="stop3879" />
    </linearGradient>
    <linearGradient
       id="linearGradient3867">
      <stop
         style="stop-color:#ffffff;stop-opacity:1;"
         offset="0"
         id="stop3869" />
      <stop
         style="stop-color:#ffffff;stop-opacity:0.58928573;"
         offset="1"
         id="stop3871" />
    </linearGradient>
    <linearGradient
       id="linearGradient3760">
      <stop
         style="stop-color:#2389ce;stop-opacity:1;"
         offset="0"
         id="stop3762" />
      <stop
         style="stop-color:#0e53cc;stop-opacity:1;"
         offset="1"
         id="stop3764" />
    </linearGradient>
    <radialGradient
       inkscape:collect="always"
       xlink:href="#linearGradient3760"
       id="radialGradient3766"
       cx="381.6713"
       cy="548.02087"
       fx="381.6713"
       fy="548.02087"
       r="315.89005"
       gradientTransform="matrix(0.18108806,0,0,0.2413736,91.497259,665.42749)"
       gradientUnits="userSpaceOnUse"
       spreadMethod="reflect" />
    <radialGradient
       inkscape:collect="always"
       xlink:href="#linearGradient3867"
       id="radialGradient3873"
       cx="202.02795"
       cy="60.749763"
       fx="202.02795"
       fy="60.749763"
       r="183.19713"
       gradientTransform="matrix(1,0,0,0.1495133,0,51.666866)"
       gradientUnits="userSpaceOnUse" />
    <radialGradient
       inkscape:collect="always"
       xlink:href="#linearGradient3875"
       id="radialGradient3881"
       cx="161.39664"
       cy="797.02062"
       fx="161.39664"
       fy="797.02062"
       r="57.61337"
       gradientTransform="matrix(1,0,0,1.3305418,-0.78327,-262.76399)"
       gradientUnits="userSpaceOnUse" />
    <radialGradient
       inkscape:collect="always"
       xlink:href="#linearGradient5354"
       id="radialGradient5362"
       cx="202.02795"
       cy="60.749763"
       fx="202.02795"
       fy="60.749763"
       r="183.19713"
       gradientTransform="matrix(1,0,0,0.1495133,0,51.666866)"
       gradientUnits="userSpaceOnUse" />
    <linearGradient
       inkscape:collect="always"
       xlink:href="#linearGradient5364"
       id="linearGradient5370"
       x1="0"
       y1="943.10839"
       x2="316.13738"
       y2="943.10839"
       gradientUnits="userSpaceOnUse" />
    <linearGradient
       id="linearGradient5354-0">
      <stop
         style="stop-color:#e6e6e6;stop-opacity:1;"
         offset="0"
         id="stop5356-3" />
      <stop
         style="stop-color:#e6e6e6;stop-opacity:0.70535713;"
         offset="1"
         id="stop5358-2" />
    </linearGradient>
    <linearGradient
       id="linearGradient3867-0">
      <stop
         style="stop-color:#ffffff;stop-opacity:1;"
         offset="0"
         id="stop3869-4" />
      <stop
         style="stop-color:#ffffff;stop-opacity:0;"
         offset="1"
         id="stop3871-9" />
    </linearGradient>
    <radialGradient
       r="183.19713"
       fy="60.749763"
       fx="202.02795"
       cy="60.749763"
       cx="202.02795"
       gradientTransform="matrix(1,0,0,0.1495133,0,51.666866)"
       gradientUnits="userSpaceOnUse"
       id="radialGradient5496"
       xlink:href="#linearGradient3867-0"
       inkscape:collect="always" />
    <radialGradient
       r="183.19713"
       fy="60.749763"
       fx="202.02795"
       cy="60.749763"
       cx="202.02795"
       gradientTransform="matrix(1,0,0,0.1495133,0,51.666866)"
       gradientUnits="userSpaceOnUse"
       id="radialGradient5498"
       xlink:href="#linearGradient5354-0"
       inkscape:collect="always" />
    <radialGradient
       r="183.19713"
       fy="60.749763"
       fx="202.02795"
       cy="60.749763"
       cx="202.02795"
       gradientTransform="matrix(1,0,0,0.1495133,0,51.666866)"
       gradientUnits="userSpaceOnUse"
       id="radialGradient5500"
       xlink:href="#linearGradient3867-0"
       inkscape:collect="always" />
    <radialGradient
       r="183.19713"
       fy="60.749763"
       fx="202.02795"
       cy="60.749763"
       cx="202.02795"
       gradientTransform="matrix(1,0,0,0.1495133,0,51.666866)"
       gradientUnits="userSpaceOnUse"
       id="radialGradient5504"
       xlink:href="#linearGradient3867-0"
       inkscape:collect="always" />
    <radialGradient
       r="183.19713"
       fy="60.749763"
       fx="202.02795"
       cy="60.749763"
       cx="202.02795"
       gradientTransform="matrix(1,0,0,0.1495133,0,51.666866)"
       gradientUnits="userSpaceOnUse"
       id="radialGradient5508"
       xlink:href="#linearGradient3867-0"
       inkscape:collect="always" />
    <linearGradient
       id="linearGradient3760-9">
      <stop
         style="stop-color:#2389ce;stop-opacity:1;"
         offset="0"
         id="stop3762-5" />
      <stop
         style="stop-color:#0e53cc;stop-opacity:1;"
         offset="1"
         id="stop3764-5" />
    </linearGradient>
    <linearGradient
       id="linearGradient3875-8">
      <stop
         style="stop-color:#ffffff;stop-opacity:1;"
         offset="0"
         id="stop3877-6" />
      <stop
         style="stop-color:#ffffff;stop-opacity:0.58928573;"
         offset="1"
         id="stop3879-8" />
    </linearGradient>
    <radialGradient
       r="315.89005"
       fy="548.02087"
       fx="381.6713"
       cy="548.02087"
       cx="381.6713"
       spreadMethod="reflect"
       gradientTransform="matrix(0.18108806,0,0,0.2413736,91.497259,665.42749)"
       gradientUnits="userSpaceOnUse"
       id="radialGradient5742"
       xlink:href="#linearGradient3760-9"
       inkscape:collect="always" />
    <radialGradient
       r="57.613369"
       fy="797.02063"
       fx="161.39664"
       cy="797.02063"
       cx="161.39664"
       gradientTransform="matrix(1,0,0,1.3305418,-0.783271,-262.76399)"
       gradientUnits="userSpaceOnUse"
       id="radialGradient5744"
       xlink:href="#linearGradient3875-8"
       inkscape:collect="always" />
    <filter
       id="filter5857"
       inkscape:menu-tooltip="Glowing metal texture"
       inkscape:menu="Bevels"
       inkscape:label="Glowing metal"
       color-interpolation-filters="sRGB">
      <feGaussianBlur
         id="feGaussianBlur5859"
         stdDeviation="3"
         result="result10" />
      <feBlend
         id="feBlend5861"
         in2="SourceGraphic"
         result="result5"
         mode="multiply"
         in="result10" />
      <feComposite
         id="feComposite5863"
         in2="SourceGraphic"
         in="result5"
         result="fbSourceGraphic"
         operator="over" />
      <feGaussianBlur
         id="feGaussianBlur5865"
         result="result9"
         stdDeviation="5" />
      <feSpecularLighting
         id="feSpecularLighting5867"
         in="result9"
         result="result1"
         lighting-color="rgb(255,255,255)"
         surfaceScale="1"
         specularConstant="2.2"
         specularExponent="45">
        <fePointLight
           id="fePointLight5869"
           x="-5000"
           y="-10000"
           z="20000" />
      </feSpecularLighting>
      <feComposite
         id="feComposite5871"
         in2="fbSourceGraphic"
         in="result1"
         result="result2"
         operator="in" />
      <feComposite
         id="feComposite5873"
         in2="fbSourceGraphic"
         in="result2"
         result="result4"
         operator="arithmetic"
         k2="2"
         k3="0.8" />
      <feBlend
         id="feBlend5875"
         in2="result4"
         in="result4"
         mode="multiply" />
    </filter>
    <filter
       inkscape:collect="always"
       id="filter6335"
       x="-0.041982225"
       width="1.0839644"
       y="-0.28079258"
       height="1.5615852">
      <feGaussianBlur
         inkscape:collect="always"
         stdDeviation="6.4091858"
         id="feGaussianBlur6337" />
    </filter>
  </defs>
  <sodipodi:namedview
     id="base"
     pagecolor="#ffffff"
     bordercolor="#666666"
     borderopacity="1.0"
     inkscape:pageopacity="0.0"
     inkscape:pageshadow="2"
     inkscape:zoom="2"
     inkscape:cx="167.78589"
     inkscape:cy="379.71533"
     inkscape:document-units="px"
     inkscape:current-layer="layer2"
     showgrid="false"
     inkscape:window-width="1075"
     inkscape:window-height="757"
     inkscape:window-x="347"
     inkscape:window-y="113"
     inkscape:window-maximized="0"
     fit-margin-top="0"
     fit-margin-left="0"
     fit-margin-right="0"
     fit-margin-bottom="0"
     showguides="true"
     inkscape:guide-bbox="true" />
  <metadata
     id="metadata7">
    <rdf:RDF>
      <cc:Work
         rdf:about="">
        <dc:format>image/svg+xml</dc:format>
        <dc:type
           rdf:resource="http://purl.org/dc/dcmitype/StillImage" />
        <dc:title></dc:title>
      </cc:Work>
    </rdf:RDF>
  </metadata>
  <g
     inkscape:groupmode="layer"
     id="layer3"
     inkscape:label="Background"
     style="display:inline"
     transform="translate(0,-592.36223)">
    <rect
       style="fill:#000000;fill-opacity:1;stroke-width:10;stroke-linejoin:round;stroke-miterlimit:4;stroke-dasharray:none"
       id="rect3756"
       width="320"
       height="460"
       x="0"
       y="592.36224"
       inkscape:export-xdpi="90"
       inkscape:export-ydpi="90" />
  </g>
  <g
     inkscape:groupmode="layer"
     id="layer2"
     inkscape:label="Title"
     style="display:inline"
     transform="translate(0,-600.31152)">
    <flowRoot
       xml:space="preserve"
       id="flowRoot3011-8"
       style="font-size:40px;font-style:normal;font-weight:normal;line-height:125%;letter-spacing:0px;word-spacing:0px;fill:#1d79cd;fill-opacity:1;stroke:url(#radialGradient5508);stroke-width:1.40795231000000000;stroke-linejoin:round;stroke-miterlimit:4;stroke-opacity:1;stroke-dasharray:none;display:inline;font-family:Sans;opacity:1;filter:url(#filter6335)"
       transform="matrix(0.71025133,0,0,0.71025133,17.94513,621.58417)"><flowRegion
         id="flowRegion3013-6"
         style="fill:url(#radialGradient5498);fill-opacity:1;stroke:url(#radialGradient5500)"><rect
           id="rect3015-4"
           width="696.22821"
           height="187.44606"
           x="13.389004"
           y="29.358204"
           style="fill:#1d79cd;fill-opacity:1;stroke:url(#radialGradient5496);stroke-width:1.40795231000000000;stroke-linejoin:round;stroke-miterlimit:4;stroke-opacity:1;stroke-dasharray:none" /></flowRegion><flowPara
         id="flowPara3017-3"
         style="font-size:74.20748138000000400px;font-style:normal;font-variant:normal;font-weight:normal;font-stretch:normal;fill:#1d79cd;fill-opacity:1;stroke:url(#radialGradient5504);stroke-width:1.40795231000000000;stroke-linejoin:round;stroke-miterlimit:4;stroke-opacity:1;stroke-dasharray:none;font-family:Corbel;-inkscape-font-specification:Corbel">MobileMiles</flowPara></flowRoot>    <flowRoot
       xml:space="preserve"
       id="flowRoot3011"
       style="font-size:40px;font-style:normal;font-weight:normal;line-height:125%;letter-spacing:0px;word-spacing:0px;fill:url(#radialGradient5362);fill-opacity:1;stroke:url(#radialGradient3873);font-family:Sans;stroke-opacity:1;stroke-width:1.40795231000000000;stroke-miterlimit:4;stroke-dasharray:none;stroke-linejoin:round;opacity:1"
       transform="matrix(0.71025133,0,0,0.71025133,17.945851,621.57715)"><flowRegion
         id="flowRegion3013"
         style="fill:url(#radialGradient5362);fill-opacity:1;stroke:url(#radialGradient3873)"><rect
           id="rect3015"
           width="696.22821"
           height="187.44606"
           x="13.389004"
           y="29.358204"
           style="fill:url(#radialGradient5362);fill-opacity:1;stroke:url(#radialGradient3873);stroke-opacity:1;stroke-width:1.40795231000000000;stroke-miterlimit:4;stroke-dasharray:none;stroke-linejoin:round" /></flowRegion><flowPara
         id="flowPara3017"
         style="font-size:74.20748138000000400px;font-style:normal;font-variant:normal;font-weight:normal;font-stretch:normal;fill:url(#radialGradient5362);fill-opacity:1;font-family:Corbel;-inkscape-font-specification:Corbel;stroke:url(#radialGradient3873);stroke-opacity:1;stroke-width:1.40795231000000000;stroke-miterlimit:4;stroke-dasharray:none;stroke-linejoin:round">MobileMiles</flowPara></flowRoot>  </g>
  <g
     inkscape:groupmode="layer"
     id="layer4"
     inkscape:label="Description"
     transform="translate(0,-600.31152)">
    <path
       style="fill:url(#linearGradient5370);fill-opacity:1;stroke:none"
       d="m 0,909.90527 316.13738,0 -45.69841,66.40625 -270.43897,0 z"
       id="rect3883"
       inkscape:connector-curvature="0"
       sodipodi:nodetypes="ccccc" />
    <flowRoot
       xml:space="preserve"
       id="flowRoot4325"
       style="font-size:40px;font-style:normal;font-weight:normal;text-align:center;line-height:125%;letter-spacing:0px;word-spacing:0px;text-anchor:middle;fill:#ffffff;fill-opacity:1;stroke:none;display:inline;font-family:Sans"
       transform="matrix(0.43921636,0,0,0.43921636,-12.330596,545.47578)"><flowRegion
         id="flowRegion4327"><rect
           id="rect4329"
           width="550"
           height="115.625"
           x="118.75"
           y="857.18652"
           style="text-align:center;text-anchor:middle;fill:#ffffff" /></flowRegion><flowPara
         id="flowPara4331"
         style="font-style:normal;font-variant:normal;font-weight:normal;font-stretch:normal;font-family:Corbel;-inkscape-font-specification:Corbel">Easy fuel mileage tracking</flowPara><flowPara
         style="font-style:normal;font-variant:normal;font-weight:normal;font-stretch:normal;font-family:Corbel;-inkscape-font-specification:Corbel"
         id="flowPara5372">from your mobile device</flowPara></flowRoot>  </g>
  <g
     inkscape:groupmode="layer"
     id="layer5"
     inkscape:label="GitHub"
     style="opacity:0.2"
     transform="translate(0,-600.31152)">
    <g
       id="g4414"
       transform="matrix(0.43921636,0,0,0.43921636,255.85968,993.7101)">
      <path
         id="path4391"
         d="m 64.876,0.353 c -35.654,0 -64.527,28.935 -64.527,64.644 0,35.724 28.873,64.649 64.527,64.649 35.903,0 64.774,-28.926 64.774,-64.649 0,-35.709 -28.871,-64.644 -64.774,-64.644 z M 11.027,73.354 c 8.071,-1.242 13.522,-0.639 19.207,-0.445 0.305,0.792 0.638,1.554 1.012,2.296 -5.561,0.2 -11.218,0.021 -19.483,1.94 -0.278,-1.256 -0.528,-2.508 -0.736,-3.791 z m 40.674,22.574 c -2.579,1.264 -10.789,4.327 -15.739,-4.145 0,0 -2.774,-5.042 -8.043,-5.417 0,0 -5.132,-0.062 -0.361,3.196 0,0 3.439,1.608 5.824,7.676 0,0 3.121,10.353 17.987,6.976 l 0.041,10.706 c 0,0 -0.111,1.357 -0.957,2.732 -19.096,-5.243 -34.003,-20.637 -38.58,-40.051 8.362,-1.947 14.104,-1.746 19.623,-1.941 3.855,7.136 11.399,11.719 24.823,13.111 -1.914,1.297 -3.841,3.481 -4.618,7.157 z m -1.289,2.427 c 0,0.401 -0.458,0.713 -1.012,0.721 -0.57,0 -1.026,-0.311 -1.026,-0.707 0,-0.389 0.457,-0.715 1.012,-0.715 0.568,-0.006 1.026,0.319 1.026,0.701 z m -3.342,0.577 c 0.013,0.381 -0.445,0.705 -1.012,0.705 -0.569,0 -1.026,-0.318 -1.026,-0.705 0,-0.396 0.457,-0.715 1.026,-0.715 0.553,0 1.012,0.31 1.012,0.715 z m -3.287,0.006 c 0,0.381 -0.444,0.709 -1.012,0.715 -0.583,0 -1.026,-0.325 -1.041,-0.707 0,-0.401 0.458,-0.715 1.026,-0.715 0.569,-10e-4 1.027,0.312 1.027,0.707 z m -3.315,-1.256 c 0,0.396 -0.457,0.715 -1.026,0.715 -0.555,0 -1.012,-0.311 -1.012,-0.715 0,-0.381 0.443,-0.707 1.012,-0.707 0.569,-0.008 1.026,0.319 1.026,0.707 z m -6.712,-7.155 c 0.555,0 1.026,0.312 1.026,0.707 0,0.396 -0.472,0.707 -1.026,0.715 -0.569,0 -1.026,-0.312 -1.026,-0.707 0,-0.396 0.457,-0.715 1.026,-0.715 z m -1.733,-0.625 c -0.569,0.008 -1.026,-0.318 -1.041,-0.707 0,-0.396 0.472,-0.709 1.026,-0.709 0.568,-0.006 1.026,0.312 1.026,0.701 0.015,0.397 -0.457,0.715 -1.011,0.715 z m 3.314,2.983 c 0.554,0 1.026,0.319 1.026,0.707 0,0.396 -0.458,0.713 -1.013,0.721 -0.568,0 -1.04,-0.318 -1.04,-0.707 10e-4,-0.395 0.459,-0.721 1.027,-0.721 z m 1.747,2.204 c 0.556,0 1.013,0.319 1.013,0.708 0,0.4 -0.443,0.715 -1.013,0.723 -0.568,0 -1.026,-0.322 -1.026,-0.715 0,-0.382 0.458,-0.707 1.026,-0.716 z m -6.892,-7.467 c 0,0.388 -0.443,0.708 -1.013,0.715 -0.567,0 -1.026,-0.313 -1.026,-0.708 0,-0.396 0.459,-0.715 1.026,-0.715 0.556,-0.005 1.013,0.313 1.013,0.708 z m 28.124,31.569 c -0.722,-0.092 -1.429,-0.18 -2.136,-0.293 0.735,-0.873 1.221,-2.086 1.207,-3.84 l -0.028,-11.685 c 0,0 -0.416,-4.618 1.858,-6.239 l 0.07,19.178 c 0,0.002 -0.153,1.417 -0.971,2.879 z m 6.573,0.403 c -0.042,0 -0.083,-0.007 -0.111,-0.007 0.458,-0.937 0.75,-2.114 0.805,-3.612 l 0.083,-19.408 1.596,-0.008 0.206,19.403 c 0.071,1.461 0.362,2.613 0.778,3.521 -1.111,0.062 -2.232,0.111 -3.357,0.111 z m 9.293,-0.798 C 73.821,117.43 73.78,116.257 73.78,116.257 L 73.71,97.244 c 2.274,1.762 1.914,6.068 1.914,6.068 l 0.041,11.684 c 0,1.447 0.332,2.537 0.858,3.354 -0.776,0.175 -1.565,0.313 -2.341,0.446 z m 8.597,-2.185 c -1.012,-0.943 -1.139,-1.795 -1.139,-1.795 L 81.584,99.505 c -0.013,-5.97 -2.537,-9.117 -4.991,-10.781 14.285,-1.471 21.135,-6.121 24.268,-13.32 5.478,0.132 9.361,-0.457 17.447,1.394 -4.091,18.632 -17.697,33.669 -35.529,39.813 z m 35.639,-40.263 c -8,-1.838 -11.843,-1.275 -17.348,-1.416 0.291,-0.726 0.555,-1.484 0.777,-2.259 5.532,-0.257 9.541,-1.157 17.223,-0.098 -0.181,1.277 -0.388,2.525 -0.652,3.773 z m -16.434,-4.155 c 1.041,-3.834 1.358,-8.235 1.332,-13.146 -0.014,-7.045 -2.691,-12.675 -6.989,-16.94 0.735,-2.427 1.72,-7.814 -1.054,-14.7 0,0 -4.854,-1.518 -15.81,5.874 C 75.164,32.22 70.588,31.713 66.013,31.72 60.964,31.741 55.874,32.4 51.131,33.724 39.774,26.028 34.782,27.63 34.782,27.63 31.551,35.819 33.59,41.86 34.2,43.363 c -3.798,4.161 -6.129,9.465 -6.115,15.954 0.028,4.896 0.596,9.292 1.969,13.104 C 24.355,72.241 18.945,71.647 10.972,72.879 10.597,70.309 10.404,67.68 10.404,64.997 10.389,34.849 34.797,10.4 64.889,10.4 c 30.329,0 54.722,24.449 54.722,54.597 0,2.413 -0.18,4.782 -0.486,7.112 -7.613,-1.059 -11.593,-0.164 -17.141,0.084 z"
         inkscape:connector-curvature="0"
         style="fill:#e6e6e7" />
      <g
         id="g4393">
        <g
           id="g4395">
          <path
             d="m 64.876,0.353 c -35.654,0 -64.527,28.935 -64.527,64.644 0,35.724 28.873,64.649 64.527,64.649 35.903,0 64.774,-28.926 64.774,-64.649 0,-35.709 -28.871,-64.644 -64.774,-64.644 z M 11.027,73.354 c 8.071,-1.242 13.522,-0.639 19.207,-0.445 0.305,0.792 0.638,1.554 1.012,2.296 -5.561,0.2 -11.218,0.021 -19.483,1.94 -0.278,-1.256 -0.528,-2.508 -0.736,-3.791 z m 40.674,22.574 c -2.579,1.264 -10.789,4.327 -15.739,-4.145 0,0 -2.774,-5.042 -8.043,-5.417 0,0 -5.132,-0.062 -0.361,3.196 0,0 3.439,1.608 5.824,7.676 0,0 3.121,10.353 17.987,6.976 l 0.041,10.706 c 0,0 -0.111,1.357 -0.957,2.732 -19.096,-5.243 -34.003,-20.637 -38.58,-40.051 8.362,-1.947 14.104,-1.746 19.623,-1.941 3.855,7.136 11.399,11.719 24.823,13.111 -1.914,1.297 -3.841,3.481 -4.618,7.157 z m -1.289,2.427 c 0,0.401 -0.458,0.713 -1.012,0.721 -0.57,0 -1.026,-0.311 -1.026,-0.707 0,-0.389 0.457,-0.715 1.012,-0.715 0.568,-0.006 1.026,0.319 1.026,0.701 z m -3.342,0.577 c 0.013,0.381 -0.445,0.705 -1.012,0.705 -0.569,0 -1.026,-0.318 -1.026,-0.705 0,-0.396 0.457,-0.715 1.026,-0.715 0.553,0 1.012,0.31 1.012,0.715 z m -3.287,0.006 c 0,0.381 -0.444,0.709 -1.012,0.715 -0.583,0 -1.026,-0.325 -1.041,-0.707 0,-0.401 0.458,-0.715 1.026,-0.715 0.569,-10e-4 1.027,0.312 1.027,0.707 z m -3.315,-1.256 c 0,0.396 -0.457,0.715 -1.026,0.715 -0.555,0 -1.012,-0.311 -1.012,-0.715 0,-0.381 0.443,-0.707 1.012,-0.707 0.569,-0.008 1.026,0.319 1.026,0.707 z m -6.712,-7.155 c 0.555,0 1.026,0.312 1.026,0.707 0,0.396 -0.472,0.707 -1.026,0.715 -0.569,0 -1.026,-0.312 -1.026,-0.707 0,-0.396 0.457,-0.715 1.026,-0.715 z m -1.733,-0.625 c -0.569,0.008 -1.026,-0.318 -1.041,-0.707 0,-0.396 0.472,-0.709 1.026,-0.709 0.568,-0.006 1.026,0.312 1.026,0.701 0.015,0.397 -0.457,0.715 -1.011,0.715 z m 3.314,2.983 c 0.554,0 1.026,0.319 1.026,0.707 0,0.396 -0.458,0.713 -1.013,0.721 -0.568,0 -1.04,-0.318 -1.04,-0.707 10e-4,-0.395 0.459,-0.721 1.027,-0.721 z m 1.747,2.204 c 0.556,0 1.013,0.319 1.013,0.708 0,0.4 -0.443,0.715 -1.013,0.723 -0.568,0 -1.026,-0.322 -1.026,-0.715 0,-0.382 0.458,-0.707 1.026,-0.716 z m -6.892,-7.467 c 0,0.388 -0.443,0.708 -1.013,0.715 -0.567,0 -1.026,-0.313 -1.026,-0.708 0,-0.396 0.459,-0.715 1.026,-0.715 0.556,-0.005 1.013,0.313 1.013,0.708 z m 28.124,31.569 c -0.722,-0.092 -1.429,-0.18 -2.136,-0.293 0.735,-0.873 1.221,-2.086 1.207,-3.84 l -0.028,-11.685 c 0,0 -0.416,-4.618 1.858,-6.239 l 0.07,19.178 c 0,0.002 -0.153,1.417 -0.971,2.879 z m 6.573,0.403 c -0.042,0 -0.083,-0.007 -0.111,-0.007 0.458,-0.937 0.75,-2.114 0.805,-3.612 l 0.083,-19.408 1.596,-0.008 0.206,19.403 c 0.071,1.461 0.362,2.613 0.778,3.521 -1.111,0.062 -2.232,0.111 -3.357,0.111 z m 9.293,-0.798 C 73.821,117.43 73.78,116.257 73.78,116.257 L 73.71,97.244 c 2.274,1.762 1.914,6.068 1.914,6.068 l 0.041,11.684 c 0,1.447 0.332,2.537 0.858,3.354 -0.776,0.175 -1.565,0.313 -2.341,0.446 z m 8.597,-2.185 c -1.012,-0.943 -1.139,-1.795 -1.139,-1.795 L 81.584,99.505 c -0.013,-5.97 -2.537,-9.117 -4.991,-10.781 14.285,-1.471 21.135,-6.121 24.268,-13.32 5.478,0.132 9.361,-0.457 17.447,1.394 -4.091,18.632 -17.697,33.669 -35.529,39.813 z m 35.639,-40.263 c -8,-1.838 -11.843,-1.275 -17.348,-1.416 0.291,-0.726 0.555,-1.484 0.777,-2.259 5.532,-0.257 9.541,-1.157 17.223,-0.098 -0.181,1.277 -0.388,2.525 -0.652,3.773 z m -16.434,-4.155 c 1.041,-3.834 1.358,-8.235 1.332,-13.146 -0.014,-7.045 -2.691,-12.675 -6.989,-16.94 0.735,-2.427 1.72,-7.814 -1.054,-14.7 0,0 -4.854,-1.518 -15.81,5.874 C 75.164,32.22 70.588,31.713 66.013,31.72 60.964,31.741 55.874,32.4 51.131,33.724 39.774,26.028 34.782,27.63 34.782,27.63 31.551,35.819 33.59,41.86 34.2,43.363 c -3.798,4.161 -6.129,9.465 -6.115,15.954 0.028,4.896 0.596,9.292 1.969,13.104 C 24.355,72.241 18.945,71.647 10.972,72.879 10.597,70.309 10.404,67.68 10.404,64.997 10.389,34.849 34.797,10.4 64.889,10.4 c 30.329,0 54.722,24.449 54.722,54.597 0,2.413 -0.18,4.782 -0.486,7.112 -7.613,-1.059 -11.593,-0.164 -17.141,0.084 z"
             id="SVGID_1_"
             inkscape:connector-curvature="0"
             style="fill:#dbdcdd" />
        </g>
        <g
           id="g4398">
          <defs
             id="defs4400">
            <path
               d="m 64.876,0.353 c -35.654,0 -64.527,28.935 -64.527,64.644 0,35.724 28.873,64.649 64.527,64.649 35.903,0 64.774,-28.926 64.774,-64.649 0,-35.709 -28.871,-64.644 -64.774,-64.644 z M 11.027,73.354 c 8.071,-1.242 13.522,-0.639 19.207,-0.445 0.305,0.792 0.638,1.554 1.012,2.296 -5.561,0.2 -11.218,0.021 -19.483,1.94 -0.278,-1.256 -0.528,-2.508 -0.736,-3.791 z m 40.674,22.574 c -2.579,1.264 -10.789,4.327 -15.739,-4.145 0,0 -2.774,-5.042 -8.043,-5.417 0,0 -5.132,-0.062 -0.361,3.196 0,0 3.439,1.608 5.824,7.676 0,0 3.121,10.353 17.987,6.976 l 0.041,10.706 c 0,0 -0.111,1.357 -0.957,2.732 -19.096,-5.243 -34.003,-20.637 -38.58,-40.051 8.362,-1.947 14.104,-1.746 19.623,-1.941 3.855,7.136 11.399,11.719 24.823,13.111 -1.914,1.297 -3.841,3.481 -4.618,7.157 z m -1.289,2.427 c 0,0.401 -0.458,0.713 -1.012,0.721 -0.57,0 -1.026,-0.311 -1.026,-0.707 0,-0.389 0.457,-0.715 1.012,-0.715 0.568,-0.006 1.026,0.319 1.026,0.701 z m -3.342,0.577 c 0.013,0.381 -0.445,0.705 -1.012,0.705 -0.569,0 -1.026,-0.318 -1.026,-0.705 0,-0.396 0.457,-0.715 1.026,-0.715 0.553,0 1.012,0.31 1.012,0.715 z m -3.287,0.006 c 0,0.381 -0.444,0.709 -1.012,0.715 -0.583,0 -1.026,-0.325 -1.041,-0.707 0,-0.401 0.458,-0.715 1.026,-0.715 0.569,-10e-4 1.027,0.312 1.027,0.707 z m -3.315,-1.256 c 0,0.396 -0.457,0.715 -1.026,0.715 -0.555,0 -1.012,-0.311 -1.012,-0.715 0,-0.381 0.443,-0.707 1.012,-0.707 0.569,-0.008 1.026,0.319 1.026,0.707 z m -6.712,-7.155 c 0.555,0 1.026,0.312 1.026,0.707 0,0.396 -0.472,0.707 -1.026,0.715 -0.569,0 -1.026,-0.312 -1.026,-0.707 0,-0.396 0.457,-0.715 1.026,-0.715 z m -1.733,-0.625 c -0.569,0.008 -1.026,-0.318 -1.041,-0.707 0,-0.396 0.472,-0.709 1.026,-0.709 0.568,-0.006 1.026,0.312 1.026,0.701 0.015,0.397 -0.457,0.715 -1.011,0.715 z m 3.314,2.983 c 0.554,0 1.026,0.319 1.026,0.707 0,0.396 -0.458,0.713 -1.013,0.721 -0.568,0 -1.04,-0.318 -1.04,-0.707 10e-4,-0.395 0.459,-0.721 1.027,-0.721 z m 1.747,2.204 c 0.556,0 1.013,0.319 1.013,0.708 0,0.4 -0.443,0.715 -1.013,0.723 -0.568,0 -1.026,-0.322 -1.026,-0.715 0,-0.382 0.458,-0.707 1.026,-0.716 z m -6.892,-7.467 c 0,0.388 -0.443,0.708 -1.013,0.715 -0.567,0 -1.026,-0.313 -1.026,-0.708 0,-0.396 0.459,-0.715 1.026,-0.715 0.556,-0.005 1.013,0.313 1.013,0.708 z m 28.124,31.569 c -0.722,-0.092 -1.429,-0.18 -2.136,-0.293 0.735,-0.873 1.221,-2.086 1.207,-3.84 l -0.028,-11.685 c 0,0 -0.416,-4.618 1.858,-6.239 l 0.07,19.178 c 0,0.002 -0.153,1.417 -0.971,2.879 z m 6.573,0.403 c -0.042,0 -0.083,-0.007 -0.111,-0.007 0.458,-0.937 0.75,-2.114 0.805,-3.612 l 0.083,-19.408 1.596,-0.008 0.206,19.403 c 0.071,1.461 0.362,2.613 0.778,3.521 -1.111,0.062 -2.232,0.111 -3.357,0.111 z m 9.293,-0.798 C 73.821,117.43 73.78,116.257 73.78,116.257 L 73.71,97.244 c 2.274,1.762 1.914,6.068 1.914,6.068 l 0.041,11.684 c 0,1.447 0.332,2.537 0.858,3.354 -0.776,0.175 -1.565,0.313 -2.341,0.446 z m 8.597,-2.185 c -1.012,-0.943 -1.139,-1.795 -1.139,-1.795 L 81.584,99.505 c -0.013,-5.97 -2.537,-9.117 -4.991,-10.781 14.285,-1.471 21.135,-6.121 24.268,-13.32 5.478,0.132 9.361,-0.457 17.447,1.394 -4.091,18.632 -17.697,33.669 -35.529,39.813 z m 35.639,-40.263 c -8,-1.838 -11.843,-1.275 -17.348,-1.416 0.291,-0.726 0.555,-1.484 0.777,-2.259 5.532,-0.257 9.541,-1.157 17.223,-0.098 -0.181,1.277 -0.388,2.525 -0.652,3.773 z m -16.434,-4.155 c 1.041,-3.834 1.358,-8.235 1.332,-13.146 -0.014,-7.045 -2.691,-12.675 -6.989,-16.94 0.735,-2.427 1.72,-7.814 -1.054,-14.7 0,0 -4.854,-1.518 -15.81,5.874 C 75.164,32.22 70.588,31.713 66.013,31.72 60.964,31.741 55.874,32.4 51.131,33.724 39.774,26.028 34.782,27.63 34.782,27.63 31.551,35.819 33.59,41.86 34.2,43.363 c -3.798,4.161 -6.129,9.465 -6.115,15.954 0.028,4.896 0.596,9.292 1.969,13.104 C 24.355,72.241 18.945,71.647 10.972,72.879 10.597,70.309 10.404,67.68 10.404,64.997 10.389,34.849 34.797,10.4 64.889,10.4 c 30.329,0 54.722,24.449 54.722,54.597 0,2.413 -0.18,4.782 -0.486,7.112 -7.613,-1.059 -11.593,-0.164 -17.141,0.084 z"
               id="SVGID_2_"
               inkscape:connector-curvature="0" />
          </defs>
          <clipPath
             id="SVGID_3_">
            <use
               id="use4404"
               overflow="visible"
               xlink:href="#SVGID_2_"
               style="overflow:visible"
               x="0"
               y="0"
               width="1"
               height="1" />
          </clipPath>
          <path
             id="path4406"
             d="m 64.876,1.543 c -35.654,0 -64.527,28.935 -64.527,64.643 0,35.724 28.873,64.652 64.527,64.652 35.903,0 64.774,-28.929 64.774,-64.652 0,-35.708 -28.871,-64.643 -64.774,-64.643 z M 11.027,74.542 c 8.071,-1.239 13.522,-0.638 19.207,-0.442 0.305,0.789 0.638,1.551 1.012,2.295 -5.561,0.201 -11.218,0.021 -19.483,1.939 -0.278,-1.255 -0.528,-2.509 -0.736,-3.792 z m 41.504,22.052 c -2.579,1.263 -11.619,4.852 -16.569,-3.621 0,0 -2.774,-5.041 -8.043,-5.416 0,0 -5.132,-0.062 -0.361,3.196 0,0 3.439,1.61 5.824,7.677 0,0 3.121,10.352 17.987,6.975 l 0.039,10.014 c 0,0 -0.209,2.051 -1.055,3.423 -19.096,-5.239 -33.903,-20.634 -38.48,-40.049 8.362,-1.948 14.104,-1.747 19.623,-1.942 3.855,7.139 12.33,10.569 25.754,11.963 -1.914,1.294 -3.942,4.105 -4.719,7.78 z m -2.119,2.951 c 0,0.402 -0.458,0.713 -1.012,0.721 -0.57,0 -1.026,-0.312 -1.026,-0.705 0,-0.391 0.457,-0.715 1.012,-0.715 0.568,-0.008 1.026,0.317 1.026,0.699 z m -3.342,0.577 c 0.013,0.381 -0.445,0.706 -1.012,0.706 -0.569,0 -1.026,-0.316 -1.026,-0.706 0,-0.396 0.457,-0.716 1.026,-0.716 0.553,0 1.012,0.313 1.012,0.716 z m -3.287,0.007 c 0,0.381 -0.444,0.706 -1.012,0.713 -0.583,0 -1.026,-0.326 -1.041,-0.707 0,-0.402 0.458,-0.715 1.026,-0.715 0.569,0 1.027,0.312 1.027,0.709 z m -3.315,-1.255 c 0,0.394 -0.457,0.713 -1.026,0.713 -0.555,0 -1.012,-0.312 -1.012,-0.713 0,-0.384 0.443,-0.709 1.012,-0.709 0.569,-0.006 1.026,0.319 1.026,0.709 z m -6.712,-7.155 c 0.555,0 1.026,0.311 1.026,0.704 0,0.396 -0.472,0.709 -1.026,0.716 -0.683,0 -1.026,-0.426 -1.026,-0.707 0,-0.395 0.457,-0.713 1.026,-0.713 z m -1.733,-0.625 c -0.677,0.007 -1.03,-0.438 -1.041,-0.709 0,-0.396 0.472,-0.707 1.026,-0.707 0.568,-0.006 1.026,0.311 1.026,0.7 0.015,0.395 -0.457,0.716 -1.011,0.716 z m 3.314,2.98 c 0.554,0 1.026,0.318 1.026,0.707 0,0.396 -0.458,0.716 -1.013,0.721 -0.568,0 -1.04,-0.316 -1.04,-0.706 10e-4,-0.396 0.459,-0.722 1.027,-0.722 z m 1.747,2.207 c 0.556,0 1.013,0.316 1.013,0.705 0,0.404 -0.443,0.716 -1.013,0.723 -0.568,0 -1.026,-0.318 -1.026,-0.715 0,-0.381 0.458,-0.708 1.026,-0.713 z m -6.892,-7.47 c 0,0.275 -0.556,0.71 -1.013,0.715 -0.567,0 -1.026,-0.312 -1.026,-0.707 0,-0.395 0.459,-0.713 1.026,-0.713 0.556,-0.008 1.013,0.311 1.013,0.705 z m 27.423,31.571 c -0.722,-0.09 -1.729,-0.18 -2.436,-0.293 0.735,-0.872 2.222,-2.086 2.208,-3.84 l -0.028,-11.685 c 0,0 -0.416,-4.617 1.858,-6.238 l -0.203,19.208 c 0,-0.001 -0.581,1.384 -1.399,2.848 z m 7.274,0.401 c -0.042,0 -0.784,-0.006 -0.812,-0.006 0.458,-0.938 1.45,-2.116 1.506,-3.613 l 0.083,-19.409 1.596,-0.005 0.206,19.4 c 0.071,1.461 0.96,2.615 1.376,3.522 -1.112,0.062 -2.83,0.111 -3.955,0.111 z m 9.591,-0.797 c -0.361,-1.366 -0.602,-2.537 -0.602,-2.537 L 73.71,98.436 c 2.274,1.76 1.914,6.066 1.914,6.066 l 0.041,11.684 c 0,1.448 1.229,2.539 1.755,3.356 -0.776,0.174 -2.163,0.312 -2.94,0.444 z m 8.812,-2.027 c -1.012,-0.943 -1.654,-2.833 -1.654,-2.833 L 81.585,100.695 C 81.572,94.724 77.954,90.476 75.5,88.812 c 14.285,-1.47 22.229,-5.021 25.361,-12.217 5.478,0.131 9.361,-0.459 17.447,1.393 -4.091,18.632 -17.184,33.827 -35.016,39.971 z m 35.126,-40.422 c -8,-1.837 -11.843,-1.275 -17.348,-1.413 0.291,-0.728 0.555,-1.483 0.777,-2.261 5.532,-0.258 9.541,-1.158 17.223,-0.098 -0.181,1.276 -0.388,2.524 -0.652,3.772 z m -16.434,-4.152 c 1.041,-3.836 1.358,-8.238 1.332,-13.147 -0.014,-7.044 -4.086,-13.375 -8.384,-17.641 0.735,-2.426 2.317,-6.913 -0.456,-13.798 0,0 -4.057,-1.718 -15.013,5.673 -4.299,-1.06 -8.875,-1.567 -13.45,-1.56 -5.049,0.021 -10.139,0.68 -14.882,2.004 C 39.774,27.219 35.483,28.821 35.483,28.821 32.251,37.01 34.79,42.349 35.4,43.854 31.602,48.015 28.069,54.02 28.084,60.51 28.112,65.405 28.68,69.801 30.053,73.614 24.354,73.434 18.944,72.838 10.971,74.073 10.596,71.501 10.403,68.872 10.403,66.188 10.389,36.039 34.797,11.59 64.889,11.59 c 30.329,0 54.722,24.449 54.722,54.596 0,2.414 -0.18,4.785 -0.486,7.115 -7.613,-1.061 -11.593,-0.166 -17.141,0.084 z"
             clip-path="url(#SVGID_3_)"
             inkscape:connector-curvature="0"
             style="fill:#e6e6e7" />
        </g>
      </g>
    </g>
    <flowRoot
       xml:space="preserve"
       id="flowRoot4426"
       style="font-size:40px;font-style:normal;font-weight:normal;line-height:125%;letter-spacing:0px;word-spacing:0px;fill:#ffffff;fill-opacity:1;stroke:none;font-family:Sans"
       transform="matrix(0.43921636,0,0,0.43921636,44.212083,592.12932)"><flowRegion
         id="flowRegion4428"><rect
           id="rect4430"
           width="284.375"
           height="56.25"
           x="303.125"
           y="960.31152"
           style="fill:#ffffff" /></flowRegion><flowPara
         id="flowPara4432"
         style="fill:#ffffff">on github</flowPara></flowRoot>  </g>
  <g
     inkscape:label="Pump"
     inkscape:groupmode="layer"
     id="layer1"
     style="display:inline"
     transform="translate(0,-592.36223)">
    <path
       style="fill:url(#radialGradient3766);fill-opacity:1;stroke:url(#radialGradient3881);stroke-opacity:1"
       d="m 111.67726,721.54829 c -4.30419,0 -8.17726,2.8944 -8.17726,8.45454 l 0,143.73299 64.57487,0 0,-79.37881 15.52264,0 c 0,0 1.36658,63.2167 1.27894,63.2167 -0.0876,0 -0.63714,15.9151 15.46038,16.28095 6.93499,0.15762 10.34387,-2.17502 12.6988,-4.32913 3.11139,-2.84605 4.52502,-4.78628 4.68,-9.57504 0.25195,-7.78463 -3.84303,-17.74521 -6.03815,-55.611 -2.18095,-37.62149 -1.64111,-46.27933 -1.64111,-46.27933 -6.34265,-6.37588 -20.55361,-26.44126 -27.25941,-25.97481 -3.65853,0.73171 -4.38912,3.65996 -2.9257,5.48923 1.46341,1.82927 7.44189,3.0914 7.86601,12.98741 0.54877,12.80486 2.19258,19.93554 4.75356,22.86236 2.56097,2.92683 6.21982,2.9277 8.41494,3.29355 2.19511,0.36585 2.56522,3.65829 1.83351,13.53633 -0.73171,9.87804 0.54582,31.64858 3.10679,44.8193 2.56098,13.1707 6.03675,27.44182 -4.02355,30.54729 -8.83849,2.72832 -8.59969,-17.00994 -8.23385,-49.20502 0.79239,-13.98269 -0.20869,-21.95361 -4.43665,-26.29739 -3.98795,-4.09718 -8.97451,-5.88446 -21.17033,-5.5345 l 0,-55.16395 c -0.22737,-5.17776 -2.56927,-7.89281 -7.97353,-7.78112 l -27.29903,-0.0906 -21.01187,0 z m 2.97097,10.58799 43.46114,0 0,37.50787 -43.46114,0 0,-37.50787 z m 81.60847,24.89395 c 0.0906,3.4e-4 0.17871,0.006 0.27163,0.0113 4.57579,0.24393 6.3101,2.20224 6.98887,6.72289 0.61531,4.09795 -1.16738,6.46582 -5.95327,6.98322 -5.57148,0.60231 -8.0188,-4.91203 -8.0188,-4.91203 0,0 1.00737,-8.83187 6.71157,-8.8054 z"
       id="path2997"
       inkscape:connector-curvature="0" />
    <path
       style="fill:url(#radialGradient5742);fill-opacity:1;stroke:url(#radialGradient5744);stroke-opacity:1;display:inline;opacity:0.19026549;filter:url(#filter5857)"
       d="m 111.67726,721.54829 c -4.30419,0 -8.17726,2.8944 -8.17726,8.45454 l 0,143.73299 64.57487,0 0,-79.37881 15.52264,0 c 0,0 1.36658,63.2167 1.27894,63.2167 -0.0876,0 -0.63714,15.9151 15.46038,16.28095 6.93499,0.15762 10.34387,-2.17502 12.6988,-4.32913 3.11139,-2.84605 4.52502,-4.78628 4.68,-9.57504 0.25195,-7.78463 -3.84303,-17.74521 -6.03815,-55.611 -2.18095,-37.62149 -1.64111,-46.27933 -1.64111,-46.27933 -6.34265,-6.37588 -20.55361,-26.44126 -27.25941,-25.97481 -3.65853,0.73171 -4.38912,3.65996 -2.9257,5.48923 1.46341,1.82927 7.44189,3.0914 7.86601,12.98741 0.54877,12.80486 2.19258,19.93554 4.75356,22.86236 2.56097,2.92683 6.21982,2.9277 8.41494,3.29355 2.19511,0.36585 2.56522,3.65829 1.83351,13.53633 -0.73171,9.87804 0.54582,31.64858 3.10679,44.8193 2.56098,13.1707 6.03675,27.44182 -4.02355,30.54729 -8.83849,2.72832 -8.59969,-17.00994 -8.23385,-49.20502 0.79239,-13.98269 -0.20869,-21.95361 -4.43665,-26.29739 -3.98795,-4.09718 -8.97451,-5.88446 -21.17033,-5.5345 l 0,-55.16395 c -0.22737,-5.17776 -2.56927,-7.89281 -7.97353,-7.78112 l -27.29903,-0.0906 -21.01187,0 z m 2.97097,10.58799 43.46114,0 0,37.50787 -43.46114,0 0,-37.50787 z m 81.60847,24.89395 c 0.0906,3.4e-4 0.17871,0.006 0.27163,0.0113 4.57579,0.24393 6.3101,2.20224 6.98887,6.72289 0.61531,4.09795 -1.16738,6.46582 -5.95327,6.98322 -5.57148,0.60231 -8.0188,-4.91203 -8.0188,-4.91203 0,0 1.00737,-8.83187 6.71157,-8.8054 z"
       id="path2997-0"
       inkscape:connector-curvature="0" />
  </g>
</svg>
